<svg width="47" height="12" viewBox="0 0 47 12" fill="none" xmlns="http://www.w3.org/2000/svg">
<path d="M0.186279 11.13H10.5325V0.869995L0.186279 0.869995L0.186279 11.13ZM8.54111 5.01279L6.35489 5.01279V2.84479H8.54111V5.01279ZM2.17727 2.84479H4.36471V6.98719L8.54111 6.98719V9.1552H2.17727L2.17727 2.84479ZM17.2698 0.869995C16.2467 0.869995 15.2465 1.17087 14.3958 1.73456C13.5451 2.29825 12.882 3.09945 12.4905 4.03684C12.099 4.97423 11.9965 6.00567 12.1961 7.00079C12.3958 7.99591 12.8884 8.90999 13.6119 9.62743C14.3354 10.3449 15.2571 10.8335 16.2606 11.0314C17.2641 11.2294 18.3042 11.1278 19.2495 10.7395C20.1948 10.3512 21.0027 9.69371 21.5711 8.85007C22.1396 8.00643 22.443 7.01459 22.443 5.99999C22.4413 4.63991 21.8958 3.33601 20.926 2.37429C19.9562 1.41258 18.6414 0.871583 17.2698 0.869995ZM17.2698 9.1552C16.6406 9.1552 16.0254 8.97015 15.5022 8.62343C14.979 8.27675 14.5711 7.78399 14.3303 7.20743C14.0895 6.63091 14.0265 5.99651 14.1492 5.38443C14.272 4.77239 14.5751 4.21019 15.02 3.76893C15.465 3.32767 16.0319 3.02717 16.6491 2.90542C17.2663 2.78368 17.906 2.84616 18.4874 3.08497C19.0688 3.32378 19.5657 3.72819 19.9153 4.24707C20.265 4.76591 20.4516 5.37595 20.4516 5.99999C20.4503 6.83643 20.1146 7.63823 19.5182 8.22967C18.9218 8.82111 18.1133 9.15392 17.2698 9.1552ZM40.9548 0.869995C39.9315 0.869919 38.9314 1.17072 38.0807 1.73436C37.2299 2.29801 36.5668 3.09918 36.1752 4.03655C35.7836 4.97391 35.6811 6.00543 35.8807 7.00055C36.0802 7.99571 36.5729 8.90983 37.2963 9.62731C38.0198 10.3448 38.9415 10.8334 39.9452 11.0314C40.9484 11.2294 41.9886 11.1278 42.9341 10.7396C43.8792 10.3513 44.6871 9.69375 45.2555 8.85011C45.8242 8.00647 46.1275 7.01463 46.1275 5.99999C46.1259 4.63999 45.5806 3.33614 44.6109 2.37444C43.6412 1.41273 42.3263 0.871691 40.9548 0.869995ZM40.9548 9.1552C40.3256 9.15528 39.7105 8.97027 39.1871 8.62363C38.6638 8.27699 38.2559 7.78423 38.015 7.20771C37.7741 6.63119 37.7111 5.99675 37.8338 5.38467C37.9565 4.77264 38.2595 4.21039 38.7045 3.76907C39.1494 3.32777 39.7165 3.02723 40.3336 2.90545C40.9508 2.78368 41.5905 2.84613 42.1718 3.08493C42.7534 3.32373 43.2504 3.72814 43.6001 4.24703C43.9494 4.76591 44.1361 5.37595 44.1361 5.99999C44.1349 6.83635 43.7993 7.63807 43.2028 8.22951C42.6066 8.82095 41.7983 9.15384 40.9548 9.1552ZM29.1121 0.869995C28.089 0.869995 27.0888 1.17087 26.2381 1.73456C25.3874 2.29825 24.7243 3.09945 24.3328 4.03684C23.9412 4.97423 23.8388 6.00567 24.0384 7.00079C24.238 7.99591 24.7307 8.90999 25.4542 9.62743C26.1776 10.3449 27.0994 10.8335 28.1029 11.0314C29.1064 11.2294 30.1465 11.1278 31.0918 10.7395C32.0371 10.3512 32.845 9.69371 33.4134 8.85007C33.9818 8.00643 34.2852 7.01459 34.2852 5.99999C34.2836 4.63991 33.7381 3.33601 32.7683 2.37429C31.7985 1.41258 30.4836 0.871583 29.1121 0.869995ZM29.1121 9.1552C28.5258 9.15548 27.9509 8.99511 27.4506 8.69179C26.9505 8.38847 26.5445 7.95403 26.2776 7.43635C26.0107 6.91867 25.8932 6.33791 25.9382 5.75823C25.9831 5.17851 26.1887 4.62239 26.5322 4.15123C26.8757 3.6801 27.3439 3.31224 27.8849 3.08828C28.426 2.86432 29.0189 2.79296 29.5983 2.88209C30.1777 2.97122 30.7209 3.21737 31.1681 3.59336C31.6153 3.96936 31.9491 4.46059 32.1325 5.01279H29.1121V6.98719H32.1325C31.9224 7.61731 31.5176 8.16588 30.9754 8.555C30.4333 8.94416 29.7814 9.15412 29.1121 9.1552Z" fill="#394149"/>
</svg>
