<svg width="311" height="314" viewBox="0 0 311 314" fill="none" xmlns="http://www.w3.org/2000/svg">
<g clip-path="url(#clip0_1_290)">
<path d="M103.667 55.17C103.667 82.7842 81.2807 105.17 53.6665 105.17H49.9998C22.3856 105.17 -0.000160217 82.7842 -0.000160217 55.17L-0.000160217 1.5L103.667 1.5L103.667 55.17Z" fill="#E0533D"/>
<path d="M0 158.84C0 186.454 22.3858 208.84 50 208.84H103.67V105.17H0V158.84Z" fill="#377CC8"/>
<path d="M53.6699 312.51C81.2841 312.51 103.67 290.124 103.67 262.51V208.84H50C22.3857 208.84 -7.62939e-05 231.226 -7.62939e-05 258.84V312.51H53.6699Z" fill="#E78C9D"/>
<rect x="103.67" y="1.5" width="103.67" height="103.67" rx="51.835" fill="#9DA7D0"/>
<rect x="103.67" y="105.17" width="103.67" height="103.67" fill="#EED868"/>
<path d="M103.67 258.84C103.67 231.226 126.056 208.84 153.67 208.84H157.337C184.951 208.84 207.337 231.226 207.337 258.84V312.51H103.67V258.84Z" fill="#469B88"/>
<path d="M207.34 1.5H261.01C288.624 1.5 311.01 23.8858 311.01 51.5V105.17H207.34V1.5Z" fill="#469B88"/>
<path d="M207.34 208.84H261.01C288.624 208.84 311.01 186.454 311.01 158.84V105.17H207.34V208.84Z" fill="#EED868"/>
<rect x="207.34" y="208.84" width="103.67" height="103.67" rx="51.835" fill="#377CC8"/>
</g>
<defs>
<clipPath id="clip0_1_290">
<rect y="1.5" width="311" height="311" rx="1" fill="white"/>
</clipPath>
</defs>
</svg>
